<svg width="720" height="233" viewBox="0 0 720 233" fill="none" xmlns="http://www.w3.org/2000/svg">
<path d="M278.607 0.700195H278.601C264.314 0.700195 252.732 12.2823 252.732 26.5697V206.118C252.732 220.405 264.314 231.987 278.601 231.987H278.607C292.894 231.987 304.476 220.405 304.476 206.118V26.5697C304.476 12.2823 292.894 0.700195 278.607 0.700195Z" fill="#0ACF83"/>
<path d="M206.173 0.850342H26.6248C12.3375 0.850342 0.755371 12.4325 0.755371 26.7198V26.7256C0.755371 41.0129 12.3375 52.595 26.6248 52.595H206.173C220.46 52.595 232.042 41.0129 232.042 26.7256V26.7198C232.042 12.4325 220.46 0.850342 206.173 0.850342Z" fill="#1ABCFE"/>
<path d="M118.284 72.5494H26.6248C12.3375 72.5494 0.755371 84.1316 0.755371 98.4189V98.4247C0.755371 112.712 12.3375 124.294 26.6248 124.294H118.284C132.571 124.294 144.153 112.712 144.153 98.4247V98.4189C144.153 84.1316 132.571 72.5494 118.284 72.5494Z" fill="#1ABCFE"/>
<path d="M44.6999 144.237C56.3547 144.237 67.5321 148.867 75.7733 157.108C84.0145 165.349 88.6444 176.527 88.6444 188.182C88.6444 199.836 84.0145 211.014 75.7733 219.255C67.5321 227.496 56.3547 232.126 44.6999 232.126C33.0451 232.126 21.8676 227.496 13.6264 219.255C5.38516 211.014 0.755371 199.836 0.755371 188.182C0.755371 176.527 5.38516 165.349 13.6264 157.108C21.8676 148.867 33.0451 144.237 44.6999 144.237Z" fill="#1ABCFE"/>
<path d="M396.857 232.299C436.455 232.299 468.556 200.198 468.556 160.6C468.556 121.002 436.455 88.901 396.857 88.901C357.259 88.901 325.158 121.002 325.158 160.6C325.158 200.198 357.259 232.299 396.857 232.299Z" fill="#FBAF19"/>
<path d="M468.556 160.6H396.857V232.299H468.556V160.6Z" fill="#FBAF19"/>
<path d="M518.531 88.9973C522.379 88.9962 526.188 89.7763 529.726 91.2903C533.294 92.8278 536.521 95.0588 539.219 97.8538C541.951 100.684 544.104 104.019 545.559 107.673C547.034 111.358 547.791 115.29 547.789 119.259V202.028C547.802 210.006 544.719 217.677 539.191 223.427C536.515 226.22 533.304 228.444 529.749 229.968C526.195 231.491 522.37 232.283 518.502 232.295C514.634 232.283 510.808 231.492 507.253 229.968C503.697 228.445 500.485 226.22 497.809 223.427C492.29 217.672 489.218 210.002 489.239 202.028V119.253C489.222 111.275 492.305 103.602 497.837 97.8538C500.514 95.0622 503.726 92.8391 507.282 91.3173C510.837 89.7956 514.663 89.0065 518.531 88.9973Z" fill="#EA5634"/>
<path d="M625.887 98.5813C636.63 110.046 636.269 129.955 624.448 141.356L538.468 224.166C535.7 226.864 532.415 228.973 528.81 230.368C525.206 231.763 521.356 232.414 517.494 232.283C513.626 232.133 509.829 231.206 506.327 229.556C502.826 227.906 499.693 225.568 497.115 222.682C491.794 216.735 488.982 208.959 489.267 200.985C489.522 193.022 492.855 185.468 498.565 179.912L584.551 97.1023C596.365 85.6892 614.291 86.1936 625.887 98.5813Z" fill="#EA5634"/>
<path d="M689.682 88.9973C693.53 88.9962 697.339 89.7763 700.877 91.2903C704.445 92.8278 707.672 95.0588 710.37 97.8538C713.101 100.684 715.255 104.019 716.71 107.673C718.185 111.358 718.942 115.29 718.94 119.259V202.028C718.96 210.002 715.888 217.672 710.37 223.427C707.694 226.22 704.483 228.444 700.929 229.968C697.374 231.491 693.549 232.283 689.682 232.295C685.816 232.28 681.993 231.486 678.441 229.961C674.889 228.437 671.68 226.213 669.005 223.422C663.494 217.665 660.427 209.998 660.447 202.028V119.253C660.425 111.283 663.492 103.615 669.005 97.8596C671.68 95.0698 674.889 92.8473 678.442 91.3247C681.994 89.8021 685.817 89.0106 689.682 88.9973Z" fill="#EA5634"/>
<path d="M711.488 98.5813C722.237 110.046 721.864 129.955 710.049 141.356L624.092 224.166C621.322 226.863 618.036 228.972 614.431 230.366C610.825 231.761 606.975 232.413 603.112 232.283C599.245 232.132 595.447 231.205 591.946 229.555C588.445 227.905 585.312 225.568 582.733 222.682C580.102 219.755 578.062 216.346 576.726 212.644C575.377 208.91 574.753 204.953 574.886 200.985C575.024 197.031 575.913 193.141 577.505 189.52C579.083 185.915 581.347 182.652 584.172 179.912L670.158 97.1023C681.949 85.6892 699.886 86.1936 711.488 98.5813Z" fill="#EA5634"/>
</svg>
