<svg width="225" height="40" viewBox="0 0 225 40" fill="none" xmlns="http://www.w3.org/2000/svg"><path fill-rule="evenodd" clip-rule="evenodd" d="M87.1719 9.68905H80.2696V28.3534H75.6275V9.68905H68.8198V5.9375H87.1719V9.68905zM110.102 26.6668C108.998 28.0014 107.472 28.6687 105.523 28.6687 103.728 28.6687 102.36 28.1542 101.415 27.1291 100.47 26.1047 99.9883 24.6018 99.9676 22.6213V11.7076h4.4734V22.4743C104.441 24.2079 105.232 25.0751 106.823 25.0751 108.338 25.0751 109.379 24.5496 109.949 23.5039V11.7076H114.433V28.354h-4.209l-.122-1.6872zM97.9239 15.8634C97.3167 15.7848 96.7834 15.7422 96.3182 15.7422 94.623 15.7422 93.5137 16.3096 92.9908 17.4501V28.3534h-4.473V11.707h4.2248L92.8644 13.6824c.8981-1.5293 2.1442-2.2913 3.7285-2.2913C97.0893 11.3911 97.5539 11.4594 97.9874 11.591L97.9239 15.8634z" fill="#062846"/><path fill-rule="evenodd" clip-rule="evenodd" d="M144.23 25.0758c.823000000000008.0 1.494-.2256 2.012-.6782C146.759 23.9508 147.023 23.3519 147.045 22.6008H151.238C151.227 23.7303 150.921 24.7657 150.308 25.7063 149.701 26.647 148.871 27.3716 147.81 27.8919 146.754 28.4122 145.587 28.6694 144.308 28.6694c-2.392.0-4.28299999999999-.7562-5.666-2.27C137.263 24.8863 136.571 22.7942 136.571 20.1258V19.8318c0-2.5698.687000000000012-4.6135 2.06-6.1428C139.998 12.1598 141.884 11.3926 144.277 11.3926 146.368 11.3926 148.048 11.9864 149.31 13.1687 150.577 14.3563 151.217 15.9326 151.238 17.908H147.045C147.023 17.0408 146.759 16.3368 146.242 15.7953 145.724 15.2544 145.043 14.9862 144.198 14.9862 143.157 14.9862 142.371 15.3646 141.837 16.1157 141.309 16.8726 141.046 18.0969 141.046 19.7938V20.2508C141.046 21.969 141.304 23.1984 141.832 23.9495 142.36 24.7025 143.157 25.0758 144.23 25.0758z" fill="#062846"/><path fill-rule="evenodd" clip-rule="evenodd" d="M158.172 13.5134C159.356 12.0996 160.85 11.3904 162.64 11.3904c3.63400000000001.0 5.477 2.0965 5.524 6.2949V28.352H163.696V17.7904C163.696 16.8336 163.49 16.1296 163.072 15.6725 162.66 15.2154 161.974 14.984 161.018 14.984c-1.309.0-2.25999999999999.5048-2.846 1.5131V28.3513H153.699V4.70605H158.172V13.5134h0z" fill="#062846"/><path d="M194.168 4.70605h-4.489V28.3512h4.489V4.70605z" fill="#062846"/><path fill-rule="evenodd" clip-rule="evenodd" d="M203.854 25.2592C204.514 25.2592 205.121 25.1122 205.681 24.8227 206.236 24.5288 206.647 24.1342 206.917 23.6461V20.7824H205.249C203.009 20.7824 201.816 21.5496 201.673 23.0891L201.657 23.3515C201.657 23.9034 201.852 24.3605 202.243 24.7228 202.634 25.0806 203.172 25.2592 203.854 25.2592zm3.696 3.0894C207.345 27.9496 207.196 27.4551 207.102 26.8619 206.019 28.065 204.609 28.6639 202.877 28.6639 201.239 28.6639 199.877 28.1913 198.8 27.2455 197.722 26.2998 197.183 25.1064 197.183 23.6668c0-1.7652.659999999999997-3.121 1.976-4.0668C200.474 18.6542 202.375 18.1758 204.857 18.1655h2.059V17.2197C206.916 16.4525 206.716 15.8426 206.32 15.3862 205.924 14.9291 205.295 14.6976 204.44 14.6976 203.689 14.6976 203.099 14.8768 202.671 15.2282 202.243 15.5802 202.026 16.0689 202.026 16.684H197.558C197.558 15.7221 197.854 14.8291 198.451 14.0149 199.053 13.1948 199.897 12.554 200.991 12.0866 202.084 11.6192 203.309 11.3877 204.672 11.3877c2.065.0 3.702.515099999999999 4.911 1.5447 1.215 1.0354 1.822 2.4802 1.822 4.3505v7.2194C211.416 26.0786 211.638 27.2765 212.07 28.0856V28.3486H207.55z" fill="#062846"/><path fill-rule="evenodd" clip-rule="evenodd" d="M224.25 15.8594C223.643 15.7801 223.11 15.7382 222.645 15.7382 220.95 15.7382 219.841 16.3055 219.318 17.446V28.3493H214.845V11.7029H219.07L219.191 13.679C220.089 12.1497 221.336 11.3877 222.92 11.3877 223.416 11.3877 223.881 11.456 224.314 11.5876L224.25 15.8594z" fill="#062846"/><path fill-rule="evenodd" clip-rule="evenodd" d="M129.78 22.4715C129.78 21.5985 129.469 20.9267 128.851 20.4587 128.233 19.9964 127.118 19.5026 125.508 18.9823 123.897 18.4678 122.624 17.9527 121.684 17.4531c-2.556-1.3765-3.834-3.2313-3.834-5.5645C117.85 10.6798 118.193 9.59731 118.879 8.64637 119.56 7.69543 120.548 6.95466 121.832 6.41891 123.115 5.88831 124.557 5.62012 126.157 5.62012 127.768 5.62012 129.199 5.90894 130.456 6.4924 131.718 7.07071 132.695 7.89012 133.392 8.94551 134.084 10.0073 134.432 11.2052 134.432 12.5507h-4.637C129.795 11.5263 129.468 10.7326 128.818 10.1601 128.168 9.59215 127.255 9.30912 126.077 9.30912c-1.13.0-2.012.236610000000001-2.646.71438C122.803 10.5018 122.491 11.1324 122.491 11.915 122.491 12.6403 122.861 13.2547 123.595 13.7492 124.334 14.2379 125.417 14.7002 126.853 15.1308 129.494 15.9245 131.416 16.9018 132.626 18.0733 133.83 19.2447 134.432 20.7004 134.432 22.445 134.432 24.3836 133.698 25.9077 132.219 27.0115 130.745 28.1146 128.759 28.6665 126.267 28.6665 124.53 28.6665 122.956 28.3512 121.53 27.7207 120.109 27.0895 119.022 26.223 118.272 25.1251 117.527 24.0271 117.152 22.75 117.152 21.3052h4.658C121.81 23.7744 123.294 25.0097 126.267 25.0097 127.366 25.0097 128.232 24.7892 128.85 24.3424 129.469 23.8956 129.78 23.2703 129.78 22.4715z" fill="#062846"/><path fill-rule="evenodd" clip-rule="evenodd" d="M178.756 14.5375c3.047.0 5.518 2.4576 5.518 5.4903.0 3.0321-2.471 5.4903-5.518 5.4903C175.708 25.5181 173.237 23.0599 173.237 20.0278c0-3.032 2.47-5.4903 5.51900000000001-5.4903zm0 14.0875C183.527 28.625 187.396 24.7754 187.396 20.0278c0-4.7476-3.869-8.5971-8.63999999999999-8.5971C173.984 11.4307 170.115 15.2802 170.115 20.0278 170.115 24.7754 173.984 28.625 178.756 28.625zm0-13.7174C175.91 14.9076 173.603 17.2027 173.603 20.0336S175.91 25.1597 178.756 25.1597C181.601 25.1597 183.908 22.8645 183.908 20.0336S181.601 14.9076 178.756 14.9076zm5.517 5.1202c0-3.032-2.471-5.4903-5.518-5.4903-3.048.0-5.518 2.4576-5.518 5.4903.0 3.0321 2.47 5.4903 5.518 5.4903C181.803 25.5175 184.273 23.0599 184.273 20.0278z" fill="#ff492c"/><path fill-rule="evenodd" clip-rule="evenodd" d="M182.023 25.1799 183.045 24.3721 184.274 25.9104 185.293 27.1649C185.488 27.4067 185.845 27.446 186.09 27.2526L186.113 27.2346C186.236 27.1372 186.377 27.0973 186.532 27.1153 186.688 27.1327 186.816 27.2036 186.913 27.3261L191.893 33.5824C192.087 33.8267 192.046 34.1839 191.801 34.3773L189.848 35.9214C189.725 36.0187 189.585 36.0587 189.429 36.0406 189.272 36.0226 189.145 35.9523 189.048 35.8298L184.067 29.5742C183.873 29.3299 183.914 28.9727 184.159 28.7787L184.176 28.7651C184.299 28.6678 184.37 28.5401 184.388 28.3841 184.405 28.2287 184.364 28.0882 184.265 27.9663L183.252 26.7182 182.023 25.1799zM187.545 29.0301 187.236 29.2725 189.854 32.5618 190.163 32.3194 187.545 29.0301z" fill="#ff492c"/><path fill-rule="evenodd" clip-rule="evenodd" d="M174.628 18.0215C174.914 20.8814 176.663 23.3919 179.255 24.6613 177.675 24.5627 176.228 23.7504 175.326 22.4558 174.424 21.1612 174.167 19.5275 174.628 18.0215z" fill="#ff492c"/><path fill-rule="evenodd" clip-rule="evenodd" d="M27.3117.0 40.9676 6.38506 54.6234 12.7701 54.623 12.7706 54.6239 12.7701C57.7887 17.5866 56.15 21.153 54.945 24.7777 55.3337 25.1565 55.5751 25.6843 55.5751 26.269 55.5751 27.2063 54.954 27.9995 54.0988 28.2629 53.833 30.7088 54.4343 33.3502 57.3098 36.5388 55.6085 37.8613 54.169 38.3455 52.9908 37.9915c-3.3758-1.6864-2.4564-5.8598-1.1279-10.3886C51.5608 27.2409 51.3786 26.776 51.3786 26.2685 51.3786 25.457 51.844 24.754 52.5234 24.4084 52.6265 24.3559 52.734 24.3123 52.8455 24.2772 54.0107 20.1692 54.7464 16.1914 52.2407 13.8841L40.9681 19.1547l-13.6559 6.385-11.1168-5.1972L14.6852 19.6364 13.6559 19.1552.0 12.7701 13.6559 6.38506 27.3117.0zM25.6442 12.7756C25.6442 12.8033 25.6452 12.831 25.6467 12.8582L25.6442 12.7756z" fill="#ff492c"/><path fill-rule="evenodd" clip-rule="evenodd" d="M13.6551 26.3828 14.6844 26.8635 16.1946 27.5696l11.1163 5.1977 13.6564-6.3845 6.4593-3.0208L48.3972 22.9085V17.0869l-7.4299 3.4743-13.6564 6.3845-11.1163-5.1972L14.6844 21.0419 13.6551 20.5612l-7.43-3.4743v5.8216L7.19572 23.362l6.45938 3.0208z" fill="#062846"/><path fill-rule="evenodd" clip-rule="evenodd" d="M27.3114 39.9997l21.0863-9.8588V24.3193L27.3114 34.1786C20.2826 30.892 13.2539 27.6059 6.2251 24.3193v5.8216c7.0293 3.2861 14.0575 6.5727 21.0863 9.8588z" fill="#062846"/></svg>